<?xml version="1.0" encoding="utf-8"?>
<!-- Generator: Adobe Illustrator 25.0.0, SVG Export Plug-In . SVG Version: 6.00 Build 0)  -->
<svg version="1.1" id="Capa_1" xmlns="http://www.w3.org/2000/svg" xmlns:xlink="http://www.w3.org/1999/xlink" x="0px" y="0px"
	 viewBox="0 0 135.6 40" style="enable-background:new 0 0 135.6 40;" xml:space="preserve">
<style type="text/css">
	.st0{fill:#E8EBEF;}
</style>
<g>
	<path class="st0" d="M6.8,10.9c0,0,1.8-1.7,4.9-1.7c5.6,0,10.1,4.4,10.1,9.9c0,5.6-4.5,10.1-10.1,10.1c-5.6,0-10.1-4.5-10.1-10.1
		V1.7h5.2V10.9z M6.8,19.1c0,3.1,1.8,5.5,4.9,5.5c3.1,0,5.5-2.5,5.5-5.5s-2.5-5.3-5.5-5.3c-2,0-3.9,1-4.9,2.6V19.1z"/>
	<path class="st0" d="M26,7.9c-1.8,0-3.3-1.5-3.3-3.3s1.5-3.2,3.3-3.2s3.2,1.4,3.2,3.2S27.8,7.9,26,7.9z M28.6,28.6h-5.1V9.8h5.1
		V28.6z"/>
	<path class="st0" d="M48.7,14.3c0,0,2,2.1,2,5.1c0,5.8-4.3,9.8-9.8,9.8h-0.7c-2.5,0-5,0.3-5,2.6c0,1.3,1.1,2.1,2.2,2.1
		c3.7,0,5.3-3.3,9.2-3.3c3.9,0,5.1,2.4,5.1,5.8H47c0-0.4-0.1-1-0.6-1c-1.6,0-4.1,3.1-9,3.1c-3.9,0-7.2-2.5-7.2-6.7
		c0-2.9,1.4-4.7,3.6-5.8c-1.6-1.7-2.6-4.1-2.6-6.7c0-5.3,4.4-9.7,9.8-9.7h9.7v4.5H48.7z M40.9,14.3c-2.8,0-5.1,2.3-5.1,5.1
		c0,2.9,2.2,5.2,5.1,5.2c2.9,0,5.1-2.3,5.1-5.2c0-2.5-1.8-4.8-4.3-5.1H40.9z"/>
	<path class="st0" d="M58.4,10.9c0,0,1.8-1.7,4.9-1.7c5.6,0,10.1,4.4,10.1,9.9c0,5.6-4.5,10.1-10.1,10.1c-5.6,0-10.1-4.5-10.1-10.1
		V1.7h5.2V10.9z M58.4,19.1c0,3.1,1.8,5.5,4.9,5.5c3.1,0,5.5-2.5,5.5-5.5s-2.5-5.3-5.5-5.3c-2,0-3.9,1-4.9,2.6V19.1z"/>
	<path class="st0" d="M93.5,9.8v18.7h-5.2v-1.4c0,0-1.9,2.1-5.1,2.1c-5.8,0-8.4-3.5-8.4-9.7V9.8h5.1v9.7c0,3.2,1.6,4.9,3.9,4.9
		c3.2,0,4.5-3,4.5-3V9.8H93.5z"/>
	<path class="st0" d="M113.7,1.7v26.9h-9c-5.8,0-9.7-4.5-9.7-9.7s3.2-9.7,8.4-9.7c3.6,0,5.1,1.9,5.1,1.9V1.7H113.7z M108.5,24.1
		v-7.6c0,0-0.6-2.8-3.9-2.8c-2.6,0-4.5,2-4.5,5.2c0,2.6,2,5.2,4.5,5.2H108.5z"/>
	<path class="st0" d="M133.9,9.8v18.7h-5.1v-1.3c0,0-1.6,1.9-5.2,1.9c-5.2,0-8.4-4.5-8.4-9.7s3.9-9.7,9.7-9.7H133.9z M128.7,21.9
		v-7.6h-3.9c-2.6,0-4.5,2.6-4.5,5.2c0,3.2,1.9,5.2,4.5,5.2C128.1,24.7,128.7,21.9,128.7,21.9z"/>
</g>
</svg>
