<?xml version="1.0" encoding="utf-8"?>
<!-- Generator: Adobe Illustrator 25.0.0, SVG Export Plug-In . SVG Version: 6.00 Build 0)  -->
<svg version="1.1" id="Capa_1" xmlns="http://www.w3.org/2000/svg" xmlns:xlink="http://www.w3.org/1999/xlink" x="0px" y="0px"
	 viewBox="0 0 135.6 40" style="enable-background:new 0 0 135.6 40;" xml:space="preserve">
<style type="text/css">
	.st0{fill:#E8EBEF;}
</style>
<g>
	<path class="st0" d="M131.5,16.5L118.8,3.6c-0.2-0.3-0.5-0.5-0.8-0.8l0,0l0,0c-1-0.8-2.3-1.4-3.7-1.4c-3.2,0-5.8,2.6-5.8,5.8
		c0,1.7,0.7,3.2,1.9,4.3l0,0c0,0,10.4,10,13.1,12.7c2.6,2.6,2.1,5.1,2.1,5.1l6.2-6.3v0c0.9-0.8,1.4-1.9,1.4-3.2
		C133.1,18.5,132.5,17.3,131.5,16.5z"/>
	<g>
		<path class="st0" d="M120.6,28.5c-1.1-1.4-3.7-4.2-4.7-5.2c-2.3,2.3-6,6.2-6.2,6.6l0,0l0,0c-0.6,0.9-0.9,1.9-0.9,3.1
			c0,3.1,2.5,5.5,5.5,5.5c1.5,0,2.8-0.6,3.8-1.5l0,0l0,0c0.2-0.2,0.3-0.3,0.5-0.5l3.5-3.8C122.9,30.9,121.1,29.1,120.6,28.5z"/>
		<path class="st0" d="M122.2,26c-3.2-3.2-4.6-4.6-4.6-4.6s-0.7,0.7-1.7,1.8c1,1,3.6,3.9,4.7,5.2c0.5,0.6,2.3,2.4,1.5,4.1l1-1.1
			C123.1,31.5,125.4,29.3,122.2,26z"/>
	</g>
	<path class="st0" d="M97.4,7.7l2.6,0.1l-0.5,4.3h4.5v2.2h-5l-1.2,8.4c0,0-0.9,3.7,5.1,2.5l0.8,1.9c0,0-9.1,2.6-8.5-4.1L97.4,7.7z"
		/>
	<path class="st0" d="M60.8,7.7l2.6,0.1l-0.5,4.3h4.5v2.2h-5l-1.2,8.4c0,0-0.9,3.7,5.1,2.5l0.8,1.9c0,0-9.1,2.6-8.5-4.1L60.8,7.7z"
		/>
	<path class="st0" d="M93.1,15.1L94,13c0,0-7.5-3.2-8.8,4.1l-1.3,10.6h2.4l1.1-10.1C87.3,17.5,88.1,13.1,93.1,15.1z"/>
	<path class="st0" d="M42.7,23.7l-1.2,1.8c0,0,6.2,4.5,12.8,1c2-1,2.8-3.8,2-6.3c-0.7-2.2-3-3.6-5.6-4.5c0,0-5.4-1.8-4.8-4.8
		c0.5-3,5.8-4.8,11.2-1.7l1.1-1.7c0,0-3.3-2-6.9-2.3c-2.9-0.2-7.3,1.4-8.1,5.3c-0.7,3.4,2.1,6,6.8,7.7c3.2,1.1,4.5,3.4,3.8,5.2
		c-0.6,1.6-2.4,2.1-4.7,2.1C46.5,25.5,42.7,23.7,42.7,23.7z"/>
	<polygon class="st0" points="22.1,12.1 20.1,27.6 22.3,27.6 24.2,12.1 	"/>
	<polygon class="st0" points="22.8,8.1 22.5,9.9 24.7,9.9 24.9,8.1 	"/>
	<path class="st0" d="M39.6,14.5c-0.7-2.8-13.1-4.4-13.9,5.8C24.9,30.4,36.5,27,36.5,27c0.1,6.9-9.1,4.1-9.1,4.1l-0.7,1.8
		c3.5,1.1,6.4,0.7,8.3,0.2c3.3-0.9,3.7-4.4,3.7-4.4S40.3,17.3,39.6,14.5z M35.9,24.8c-2.2,0.9-8.5,1.1-7.9-4.2
		c0.7-6.4,5.3-6.3,5.3-6.3s4.2-0.5,4.2,2.9C37.5,17.3,37.4,24.2,35.9,24.8z"/>
	<path class="st0" d="M17.8,15.8c0,0,1.6-1.4,1.9-5.3c0.2-2.5-1.6-4.7-4-4.7H6.5c0,0-2.6-0.2-3.1,2.8l-2,16.6c0,0-0.2,2.5,3.2,2.5
		s8.4,0,8.4,0s3.1,0.2,4.8-3.2c0.8-1.5,1.8-4.7,0-6.6C17.9,17.8,17,17,17.8,15.8z M16.9,21c-0.5,4.6-3.6,4.5-3.6,4.5H3.6l0.9-7.7
		c0,0,5.8,0,8,0S17.2,18.1,16.9,21z M12.5,15.6H4.7l0.9-6.3c0,0,0-1.8,2.8-1.8c7.1,0,8.6-0.3,8.8,3C17.6,14.4,14.9,15.6,12.5,15.6z"
		/>
	<path class="st0" d="M82.1,16.1c-1.5-6-11-2.8-11-2.8l0.4,2.1c9.5-2.2,8.2,2.3,8.2,2.3c-7.4-0.7-10.4,2.5-10.7,4.8
		c-0.3,2.1,0.4,5.2,5.2,5.3c5.9,0.1,7.4-4.4,7.4-4.4C82.4,18.8,82.1,16.1,82.1,16.1z M78.6,23.6c-0.6,1.3-1.9,1.7-3.6,1.8
		c-2.7,0.2-3.4-1.3-3.4-1.3c-1.7-4.5,7.7-4.4,7.7-4.4L78.6,23.6z"/>
</g>
</svg>
