<?xml version="1.0" encoding="utf-8"?>
<!-- Generator: Adobe Illustrator 25.0.0, SVG Export Plug-In . SVG Version: 6.00 Build 0)  -->
<svg version="1.1" id="Capa_1" xmlns="http://www.w3.org/2000/svg" xmlns:xlink="http://www.w3.org/1999/xlink" x="0px" y="0px"
	 viewBox="0 0 135.6 40" style="enable-background:new 0 0 135.6 40;" xml:space="preserve">
<style type="text/css">
	.st0{fill:#E8EBEF;}
</style>
<g>
	<g>
		<path class="st0" d="M97.1,28.1c-4.2,0-7.7-3.1-8.2-7.1l1.1-0.1c0.5,3.5,3.5,6.2,7.1,6.2c4,0,7.2-3.2,7.2-7.1s-3.2-7.1-7.2-7.1
			c-3.7,0-6.8,2.7-7.2,6.3l-1.1-0.1c0.4-4.2,4-7.3,8.2-7.3c4.6,0,8.3,3.7,8.3,8.1C105.4,24.5,101.7,28.1,97.1,28.1z"/>
	</g>
	<path class="st0" d="M10.2,20.1c-0.4-0.3-0.8-0.5-1.2-0.7c0.6-0.7,1-1.6,1.1-2.9c0.2-2.9-1.3-4.2-2.7-4.2l-6.2,0v8.5h0.8
		c0,0,4.3,0,4.5,0c0.6,0,1.8-0.1,2.7,0.7c0.6,0.5,0.8,1,0.8,2C9.9,25.5,8.3,26,8,26H1.1v1.7H8c1.7,0,3.6-1.3,3.6-4.2
		C11.6,21.9,11.1,21,10.2,20.1z M2.8,14h3.8c1,0,1.7,0.3,1.7,2.6c0,2.1-1.7,2.5-2.2,2.6c0,0-0.1,0-0.1,0H2.8V14z"/>
	<path class="st0" d="M27.3,22c0,0.7-0.2,4.4-4.6,4.4c-4.7,0-4.8-4.3-4.8-4.4v-9.7h-1.7V22c0,2.1,1.3,6.2,6.4,6.2
		c5,0,6.3-3.9,6.3-6.2v-9.7h-1.7V22z"/>
	<path class="st0" d="M42.6,12.3c-1.1,0-7.7,0-7.7,0v7.4h1.7V14c1.7,0,4.4,0,5.9,0c1.7,0,4.8,2.1,4.8,6.4c0,2.2-0.9,3.5-1.6,4.2
		c-1,1-2.3,1.4-3,1.4c0,0,0,0,0,0c-1.2,0-4.5,0-6,0v-4.9h-1.7v6.6c0,0,6.1,0,7.7,0c0,0,0,0,0,0c1.4,0,3-0.7,4.2-1.9
		c1-1,2.1-2.7,2.1-5.4C49,15.3,45.3,12.3,42.6,12.3z"/>
	<path class="st0" d="M57.9,12.4l-6.5,15.2l1.7,0l2-4.3h7.3l2.1,4.3h1.7l-6.6-15.2H57.9z M55.9,21.6l2.9-7.2l2.9,7.2H55.9z"/>
	<polygon class="st0" points="82.6,19.4 71.4,19.4 71.4,12.4 70.3,12.4 70.3,27.6 71.4,27.6 71.4,20.5 82.6,20.5 82.6,27.6 
		83.7,27.6 83.7,12.4 82.6,12.4 	"/>
	<polygon class="st0" points="134.5,12.3 122,12.3 122,13.4 127.5,13.4 127.5,27.6 128.6,27.6 128.6,13.4 134.5,13.4 	"/>
	<path class="st0" d="M118.2,22L118.2,22c-0.3-0.5-0.7-1-1.1-1.3c-0.4-0.4-0.9-0.7-1.4-1c-0.5-0.3-1-0.5-1.5-0.8
		c-0.5-0.2-1-0.5-1.3-0.7c-0.4-0.2-0.7-0.5-0.9-0.7c-0.2-0.2-0.4-0.5-0.5-0.8c-0.1-0.3-0.2-0.7-0.2-1.1c0-0.9,0.3-1.5,0.9-1.9
		c0.6-0.4,1.4-0.6,2.3-0.6c0.6,0,1.1,0.1,1.7,0.2c0.5,0.1,1.1,0.4,1.6,0.6l0.2,0.1l0.3-1.2l-0.1-0.1c-0.5-0.3-1.1-0.5-1.7-0.6
		c-0.6-0.2-1.3-0.2-2-0.2c-0.6,0-1.1,0.1-1.6,0.2c-0.5,0.1-1,0.4-1.4,0.7c-0.4,0.3-0.7,0.7-1,1.2c-0.2,0.5-0.4,1-0.4,1.7
		c0,0.6,0.1,1.1,0.3,1.5c0.2,0.4,0.5,0.8,0.8,1.2c0.3,0.3,0.8,0.6,1.2,0.9c0.5,0.3,1,0.5,1.5,0.8c0.5,0.2,0.9,0.5,1.3,0.7
		c0.4,0.2,0.8,0.5,1.1,0.8c0.3,0.3,0.6,0.6,0.8,1c0.2,0.4,0.3,0.8,0.3,1.3c0,0.9-0.3,1.7-1,2.3c-0.7,0.6-1.6,0.8-2.7,0.8
		c-0.7,0-1.3-0.1-1.9-0.2c-0.6-0.1-1.2-0.4-1.8-0.6l-0.1-0.1l-0.3,1.1l0.1,0.1c0.5,0.3,1.2,0.5,2,0.6c0.7,0.2,1.5,0.2,2.2,0.2
		c0.7,0,1.4-0.1,2-0.3c0.6-0.2,1.1-0.5,1.6-0.9c0.4-0.4,0.8-0.8,1-1.4c0.2-0.5,0.4-1.1,0.4-1.7C118.6,23.1,118.5,22.5,118.2,22z"/>
</g>
</svg>
