<?xml version="1.0" encoding="utf-8"?>
<!-- Generator: Adobe Illustrator 25.0.0, SVG Export Plug-In . SVG Version: 6.00 Build 0)  -->
<svg version="1.1" id="Capa_1" xmlns="http://www.w3.org/2000/svg" xmlns:xlink="http://www.w3.org/1999/xlink" x="0px" y="0px"
	 viewBox="0 0 135.6 40" style="enable-background:new 0 0 135.6 40;" xml:space="preserve">
<style type="text/css">
	.st0{fill:#E8EBEF;}
</style>
<g>
	<path class="st0" d="M1.4,11l9.3,9.1L1.4,31.7V11z"/>
	<path class="st0" d="M10.7,20.1L1.4,31.7L12.5,22L10.7,20.1z"/>
	<path class="st0" d="M31.1,5.8L1.4,31.7l29.7-0.1V5.8z"/>
	<g>
		<path class="st0" d="M39.2,14.8c0-0.9,0.7-1.4,1.6-1.4c1.8,0,4,0,5.9,0c2.1,0,3.9,1.3,4.6,3c0.9,2,0.8,3.9-0.6,5.7
			c0,0.1-0.1,0.1-0.1,0.2c0.1,0.2,0.2,0.3,0.4,0.5c1.3,1.7,1.5,3.5,0.7,5.4c-0.8,1.9-2.4,3-4.5,3c-2.1,0-4.2,0-6.4,0
			c-1,0-1.6-0.6-1.6-1.1L39.2,14.8L39.2,14.8z M42.3,28.2c1.7,0,3.3,0,4.8,0c1,0,1.9-1,1.9-2.1c0-1.1-0.7-2.2-1.8-2.2
			c-1.7,0-3.3,0-5,0V28.2z M42.3,16.5v4.3c1.6,0,3.1,0,4.6,0c1.2,0,2-0.8,2-1.9c0-1.2-0.7-2.4-1.9-2.4
			C45.6,16.5,43.9,16.5,42.3,16.5z M94,31.2h3c0-0.1,0-6,0-8.2c0-0.9,0.7-1.6,1.6-1.6c0.8,0,1.4,0.5,1.6,1.2
			c0.1,0.4,0.1,0.7,0.1,1.1c0,2,0,7.4,0,7.5h2.9c0-0.1,0-5.9,0-8c0-0.5,0.2-0.9,0.4-1.3c0.4-0.6,1.1-0.7,1.8-0.4
			c0.7,0.2,1.1,0.8,1.1,1.6c0,2.1,0,8,0,8.1h2.9c0-1.5,0-5.8,0-8.2c0-1.9-1-3.3-2.7-4.2c-1.8-0.9-3.5-0.5-5,0.7
			c-0.1,0-0.1-0.1-0.2-0.1c-1.5-1.2-3.2-1.5-5-0.5c-1.8,0.9-2.5,2.5-2.5,4.5C94,25.4,93.9,31.1,94,31.2z M65.3,18.4h-2.9
			c0,0.4,0,5.3,0,7c0,1.5-1,2.7-2.3,3c-2.1,0.4-3.8-1.1-3.9-3.3c0-1.7,0-6.6,0-6.7h-2.9c0,0.1,0,6.1,0,6.9c0.1,3.3,2.7,6,5.9,6.1
			c3.3,0.1,5.9-2.2,6.1-5.7C65.3,24,65.3,18.8,65.3,18.4L65.3,18.4z M127.3,18.5C127.3,18.4,127.3,18.6,127.3,18.5l-2.9,0
			c0,0.1,0-0.1,0,0.1c0,1.6,0,12.6,0,12.7h2.9C127.3,30.3,127.3,21.4,127.3,18.5L127.3,18.5z M132.2,26.5c0-3.7,0-12.8,0-13h-2.9
			c0,0.2,0,17.8,0,17.8h4.7v-2.8c-0.1,0-0.2,0-0.2,0C132.5,28.2,132.2,27.9,132.2,26.5L132.2,26.5z M76.1,13.4c0,0.2,0,5,0,6.3
			c-0.6-0.5-1.4-1-2.2-1.2c-3.6-0.9-7.1,1.8-7.6,5.7c-0.5,3.6,2.4,7.1,6,7.2c3.7,0.2,6.7-2.7,6.8-6.6c0-3.2,0-10.5,0-11.4L76.1,13.4
			z M72.7,28.5c-1.9,0-3.5-1.6-3.5-3.6c0.1-1.9,1.6-3.4,3.6-3.4c1.9,0.1,3.4,1.6,3.4,3.6C76,27,74.5,28.5,72.7,28.5L72.7,28.5z
			 M89.8,30.5L89.8,30.5c0.1,0,0.1-0.1,0.2-0.1c0,0,0,0.8,0,0.8h2.8c0-0.4,0-5,0-7.5c-0.4-3.1-3-5.2-6.1-5.3c-2.9-0.1-5.6,2-6.3,5
			c-0.7,2.9,0.6,6,3.3,7.4C85.7,31.8,87.8,31.7,89.8,30.5L89.8,30.5L89.8,30.5z M83.1,24.9c0-1.9,1.5-3.5,3.4-3.5
			c1.9,0,3.5,1.5,3.5,3.4c0,0.1,0,0.1,0,0.2c0,2-1.6,3.6-3.5,3.6C84.5,28.4,83,26.8,83.1,24.9L83.1,24.9z M119.6,30.5L119.6,30.5
			c0.1,0,0.1-0.1,0.2-0.1c0,0,0,0.8,0,0.8h2.8c0-0.5,0-5.1,0-7.5c-0.4-3.1-3-5.2-6.1-5.3c-2.9-0.1-5.6,2-6.3,5
			c-0.7,2.9,0.6,6,3.3,7.4C115.5,31.8,117.6,31.7,119.6,30.5L119.6,30.5L119.6,30.5z M112.8,24.9c0-1.9,1.5-3.5,3.4-3.5
			c1.9,0,3.5,1.5,3.5,3.4c0,0.1,0,0.1,0,0.2c0,2-1.6,3.6-3.5,3.6C114.3,28.4,112.8,26.8,112.8,24.9L112.8,24.9z"/>
		<path class="st0" d="M127.3,14.3l-2.9,2.4h2.9V14.3z"/>
	</g>
</g>
</svg>
