<?xml version="1.0" encoding="utf-8"?>
<!-- Generator: Adobe Illustrator 25.1.0, SVG Export Plug-In . SVG Version: 6.00 Build 0)  -->
<svg version="1.1" id="Capa_1" xmlns="http://www.w3.org/2000/svg" xmlns:xlink="http://www.w3.org/1999/xlink" x="0px" y="0px"
	 viewBox="0 0 180 42.6" style="enable-background:new 0 0 180 42.6;" xml:space="preserve">
<style type="text/css">
	.st0{fill:#B3C0DF;}
	.st1{fill:#3569AD;}
	.st2{fill:#1C6FB3;}
	.st3{fill:#E5574C;}
	.st4{fill:none;}
</style>
<g>
	<path class="st0" d="M48.1,10.3c-2.3,0-3.4-1.7-3.4-4.3c0-2.7,1.3-4.2,3.4-4.2c1,0,2,0.2,2.6,0.7l-0.4,0.8
		c-0.5-0.4-1.3-0.6-2.1-0.6c-1.7,0-2.5,1.4-2.5,3.4c0,2.1,0.8,3.5,2.5,3.5c0.9,0,1.7-0.3,2.3-0.8l0.3,0.8
		C50,9.9,49.2,10.3,48.1,10.3z"/>
	<path class="st0" d="M51.8,10.1V1.6h0.9v2.4c0,0.2,0,0.6-0.1,0.8C53,4.5,53.6,4,54.5,4c1.5,0,2.1,0.8,2.1,2.4v3.8h-1V6.5
		c0-1.1-0.4-1.8-1.4-1.8c-0.6,0-1.1,0.4-1.5,0.7v4.7H51.8z"/>
	<path class="st0" d="M58.5,10.1V4.9l-0.7-0.1V4.1h1.6v6H58.5z M58.4,1.7h1v1h-1V1.7z"/>
	<path class="st0" d="M61,8.5V1.6h0.9v7.2c0,0.5,0.2,0.7,0.9,0.7H63v0.6c0,0-0.3,0.1-0.6,0.1C61.2,10.3,61,9.6,61,8.5z"/>
	<path class="st0" d="M65,7.4c0,1.5,0.8,2.1,1.9,2.1c0.8,0,1.5-0.4,1.9-0.6L69,9.6c-0.5,0.3-1.3,0.7-2.2,0.7c-1.7,0-2.7-1.1-2.7-3.2
		C64,5.2,65,4,66.6,4C68.3,4,69,5.3,69,6.9v0.5H65z M66.6,4.7c-1.1,0-1.6,1-1.6,2h3.2C68.1,5.7,67.8,4.7,66.6,4.7z"/>
	<path class="st0" d="M73.6,10.3c-2.3,0-3.4-1.7-3.4-4.3c0-2.7,1.3-4.2,3.4-4.2c1,0,2,0.2,2.6,0.7l-0.4,0.8
		c-0.5-0.4-1.3-0.6-2.1-0.6c-1.7,0-2.5,1.4-2.5,3.4c0,2.1,0.8,3.5,2.5,3.5c0.9,0,1.7-0.3,2.3-0.8l0.3,0.8
		C75.5,9.9,74.7,10.3,73.6,10.3z"/>
	<path class="st0" d="M81.7,7.1c0,2-1,3.2-2.6,3.2c-1.6,0-2.6-1.1-2.6-3.2c0-1.8,0.8-3.1,2.6-3.1C80.7,4,81.7,5.3,81.7,7.1z
		 M80.7,7.1c0-1.6-0.5-2.4-1.6-2.4c-1.1,0-1.6,0.9-1.6,2.4c0,1.5,0.4,2.5,1.6,2.5C80.2,9.6,80.7,8.7,80.7,7.1z"/>
	<path class="st0" d="M87.7,6.3v3.8h-0.9V6.5c0-1.1-0.3-1.8-1.4-1.8c-0.6,0-1.1,0.4-1.5,0.7v4.7H83v-6h0.6l0.2,0.7
		C84.1,4.5,84.7,4,85.6,4c0.9,0,1.5,0.3,1.8,0.9c0.3-0.4,1-0.9,1.9-0.9c1.5,0,2.1,0.8,2.1,2.4v3.8h-0.9V6.5c0-1.1-0.4-1.8-1.5-1.8
		c-0.6,0-1.1,0.3-1.4,0.7C87.7,5.7,87.7,6,87.7,6.3z"/>
	<path class="st0" d="M93.6,10.5v1.9h-0.9V4.1h0.7l0.1,0.7C94,4.3,94.6,4,95.3,4c1.5,0,2.3,1.1,2.3,3.1c0,2.1-1.1,3.2-2.5,3.2
		c-0.7,0-1.2-0.3-1.6-0.7C93.5,9.6,93.6,10.2,93.6,10.5z M93.6,8.9C94,9.3,94.5,9.6,95,9.6c1.1,0,1.6-0.7,1.6-2.5
		c0-1.6-0.5-2.4-1.6-2.4c-0.6,0-1.1,0.3-1.5,0.7V8.9z"/>
	<path class="st0" d="M102,4.9c-0.2-0.1-0.4-0.1-0.8-0.1c-0.6,0-1,0.3-1.4,0.7v4.7h-0.9v-6h0.6l0.2,0.8c0.3-0.3,0.8-0.9,1.6-0.9
		c0.4,0,0.7,0.1,0.8,0.1L102,4.9z"/>
	<path class="st0" d="M106.8,10.1l-0.2-0.8c-0.4,0.5-1,0.9-1.9,0.9c-1.2,0-1.9-0.8-1.9-1.8c0-1,0.8-1.7,2.1-1.7h1.6V6.2
		c0-1-0.5-1.5-1.4-1.5c-0.8,0-1.4,0.2-1.8,0.4l-0.2-0.7c0.5-0.2,1.2-0.5,2.2-0.5c1.4,0,2.2,0.7,2.2,2.2v4H106.8z M106.5,7.3h-1.4
		c-1,0-1.4,0.4-1.4,1c0,0.7,0.4,1.2,1.3,1.2c0.6,0,1.2-0.3,1.5-0.8V7.3z"/>
</g>
<g>
	<path class="st1" d="M56.4,28.3L56,15.9h-0.1c-0.2,0.9-0.7,2.5-0.9,3.1l-3,9.3h-2L47.2,19c-0.1-0.5-0.7-2.4-0.9-3.1h-0.1l-0.4,12.4
		h-1.5l0.5-13.9h2.7c0,0,3.1,10.1,3.5,12.3h0c0.5-2.2,3.8-12.3,3.8-12.3h2.6l0.5,13.9H56.4z"/>
	<path class="st1" d="M62.3,23.7c0,2.5,1.3,3.6,3.2,3.6c1.3,0,2.5-0.6,3.1-1l0.4,1.1c-0.8,0.5-2.2,1.1-3.7,1.1
		c-2.8,0-4.6-1.8-4.6-5.3c0-3.2,1.6-5.2,4.3-5.2c2.8,0,4,2.3,4,4.8v0.9H62.3z M65,19.2c-1.9,0-2.7,1.7-2.7,3.4h5.3
		C67.6,20.8,67,19.2,65,19.2z"/>
	<path class="st1" d="M76.5,19.5c-0.3-0.1-0.7-0.2-1.3-0.2c-1,0-1.8,0.6-2.3,1.1v7.8h-1.6V18.2h1.1l0.3,1.3c0.4-0.6,1.3-1.4,2.6-1.4
		c0.7,0,1.2,0.1,1.3,0.2L76.5,19.5z"/>
	<path class="st1" d="M85.4,27.6c-0.6,0.4-1.9,0.9-3.4,0.9c-2.6,0-4.4-1.5-4.4-5.3c0-3.4,1.9-5.3,4.4-5.3c1.2,0,2.4,0.2,3.3,0.8
		l-0.5,1.1c-0.8-0.5-1.7-0.7-2.8-0.7c-1.8,0-2.9,1.4-2.9,4c0,2.8,1.1,4,2.9,4c1.2,0,2.2-0.4,2.9-0.8L85.4,27.6z"/>
	<path class="st1" d="M93.9,28.3L93.6,27c-0.6,0.8-1.7,1.5-3.1,1.5c-2.1,0-3.3-1.4-3.3-3.1c0-1.8,1.3-2.9,3.6-2.9h2.6v-0.8
		c0-1.8-0.8-2.5-2.3-2.5c-1.3,0-2.3,0.3-3.1,0.7l-0.4-1.1c0.8-0.4,2-0.8,3.7-0.8c2.4,0,3.6,1.2,3.6,3.7v6.7H93.9z M93.4,23.6h-2.4
		c-1.7,0-2.3,0.7-2.3,1.8c0,1.2,0.7,2,2.1,2c1,0,1.9-0.6,2.5-1.3V23.6z"/>
	<path class="st1" d="M104.1,27.1c-0.6,0.8-1.7,1.4-2.9,1.4c-2.4,0-4.1-1.8-4.1-5.3c0-3.1,1.5-5.2,4.2-5.2c1.3,0,2.1,0.4,2.7,0.9
		c-0.1-0.5-0.1-1.1-0.1-1.7V14h1.6v14.2h-1.2L104.1,27.1z M104,19.9c-0.5-0.3-1.3-0.7-2.5-0.7c-1.9,0-2.8,1.5-2.8,4
		c0,2.5,0.8,4.1,2.7,4.1c0.9,0,1.7-0.4,2.6-1.3V19.9z"/>
	<path class="st1" d="M116.8,23.2c0,3.4-1.7,5.3-4.4,5.3c-2.7,0-4.3-1.8-4.3-5.3c0-3,1.4-5.2,4.3-5.2
		C115.3,18,116.8,20.2,116.8,23.2z M115.2,23.2c0-2.6-0.9-4.1-2.7-4.1c-1.9,0-2.7,1.5-2.7,4.1c0,2.5,0.7,4.1,2.7,4.1
		C114.4,27.3,115.2,25.9,115.2,23.2z"/>
	<path class="st1" d="M122.8,23h-2.1v5.3h-1.6V14.4h3.7c2.7,0,5,1.3,5,4.1C127.8,21.4,125.7,23,122.8,23z M122.7,15.7h-2v6h2
		c2.1,0,3.4-1,3.4-3.1C126.1,16.6,124.7,15.7,122.7,15.7z"/>
	<path class="st1" d="M135.9,28.3l-0.2-1.2c-0.5,0.6-1.6,1.4-3.1,1.4c-2.2,0-3.5-1.3-3.5-4.1v-6.2h1.6v6.1c0,2.1,0.7,3,2.3,3
		c1,0,1.9-0.5,2.5-1v-8.1h1.6v10.1H135.9z M130.8,16.6l-0.2-0.9l4.6-1.7l0.3,1.2L130.8,16.6z"/>
	<path class="st1" d="M141.4,19.3c0.7-0.7,1.9-1.4,3-1.4c2.6,0,3.9,1.8,3.9,5.2c0,3.6-1.8,5.3-4.2,5.3c-1.3,0-2.2-0.6-2.9-1.3
		l-0.3,1.1H140V14h1.6V18L141.4,19.3z M141.5,26.2c0.6,0.7,1.5,1.2,2.5,1.2c1.8,0,2.7-1.2,2.7-4.1c0-2.7-0.8-4-2.6-4
		c-1,0-2,0.5-2.6,1.1V26.2z"/>
	<path class="st1" d="M150.5,25.5V14h1.5v12c0,0.9,0.4,1.2,1.5,1.2h0.3v1.1c0,0-0.5,0.1-1,0.1C151,28.5,150.5,27.4,150.5,25.5z"/>
	<path class="st1" d="M156.9,28.3v-8.9l-1.1-0.2v-1h2.6v10.1H156.9z M156.7,14.2h1.7v1.7h-1.7V14.2z"/>
	<path class="st1" d="M168.8,27.6c-0.6,0.4-1.9,0.9-3.4,0.9c-2.6,0-4.4-1.5-4.4-5.3c0-3.4,1.9-5.3,4.4-5.3c1.2,0,2.4,0.2,3.3,0.8
		l-0.5,1.1c-0.8-0.5-1.7-0.7-2.8-0.7c-1.8,0-2.9,1.4-2.9,4c0,2.8,1.1,4,2.9,4c1.2,0,2.2-0.4,2.9-0.8L168.8,27.6z"/>
	<path class="st1" d="M179.1,23.2c0,3.4-1.7,5.3-4.4,5.3c-2.7,0-4.3-1.8-4.3-5.3c0-3,1.4-5.2,4.3-5.2
		C177.5,18,179.1,20.2,179.1,23.2z M177.5,23.2c0-2.6-0.9-4.1-2.7-4.1c-1.9,0-2.7,1.5-2.7,4.1c0,2.5,0.7,4.1,2.7,4.1
		C176.7,27.3,177.5,25.9,177.5,23.2z"/>
</g>
<rect x="43.4" y="35.7" class="st2" width="24.5" height="5.2"/>
<rect x="67.9" y="35.7" class="st3" width="35.7" height="5.2"/>
<g>
	<path class="st4" d="M16.8,23.1l-1.5-7.5l-9.4,1.9c-1.5,0.3-2.5,1.6-2.3,3.1l1.3,14.3c0.1,1.6,1.5,2.7,3.1,2.7l17-0.6
		c1.7-0.1,3-1.5,2.9-3.2l-0.8-10l-6.2,1.8C18.9,26,17.1,24.9,16.8,23.1z"/>
	<path class="st4" d="M23.6,13.9l-5.7,1.1l1,5.3c0.3,1.5,1.8,2.5,3.3,2.1l4.6-1.2L26.2,16C26.1,14.6,24.9,13.7,23.6,13.9z"/>
	<path class="st4" d="M28.5,13.7l0.5,7l4.6-1.2c1.3-0.3,2.1-1.6,2-2.9L34.3,6.2c-0.1-1.1-1.1-2-2.2-1.9L19.4,4.6
		c-1.9,0-3.2,1.8-2.9,3.6l0.8,4.1l7-1.7C26.3,10.1,28.4,11.6,28.5,13.7z"/>
	<path class="st1" d="M30.3,37.3l-1.1-14.3l-0.2-2.4l-0.5-7c-0.2-2.1-2.2-3.6-4.3-3.1l-7,1.7l0.5,2.8l5.7-1.1c1.3-0.3,2.6,0.7,2.7,2
		l0.5,5.3l0.2,2.4l0.8,10c0.1,1.7-1.2,3.2-2.9,3.2l-17,0.6c-1.6,0.1-2.9-1.1-3.1-2.7L3.6,20.6c-0.1-1.5,0.9-2.8,2.3-3.1l9.4-1.9
		l-0.5-2.7L3.6,15.7c-1.7,0.4-2.9,2-2.7,3.8l1.6,17.9c0.2,1.8,1.7,3.2,3.5,3.2h21.4C29,40.6,30.4,39.1,30.3,37.3z"/>
	<path class="st0" d="M38.1,17.9L35.8,4c-0.2-1.4-1.5-2.4-2.9-2.3L16.4,3c-1.9,0.1-3.3,1.9-2.9,3.8l1.2,6.1l0.5,2.7l1.5,7.5
		c0.4,1.8,2.1,2.9,3.9,2.4l6.2-1.8l-0.2-2.4l-4.6,1.2c-1.5,0.4-3-0.6-3.3-2.1l-1-5.3l-0.5-2.8l-0.8-4.1c-0.4-1.8,1-3.5,2.9-3.6
		l12.7-0.3c1.1,0,2.1,0.8,2.2,1.9l1.3,10.4c0.2,1.3-0.7,2.6-2,2.9l-4.6,1.2l0.2,2.4l6.8-1.9C37.4,20.7,38.3,19.3,38.1,17.9z"/>
</g>
</svg>
