<?xml version="1.0" encoding="utf-8"?>
<!-- Generator: Adobe Illustrator 25.0.0, SVG Export Plug-In . SVG Version: 6.00 Build 0)  -->
<svg version="1.1" id="Capa_1" xmlns="http://www.w3.org/2000/svg" xmlns:xlink="http://www.w3.org/1999/xlink" x="0px" y="0px"
	 viewBox="0 0 50 40" style="enable-background:new 0 0 50 40;" xml:space="preserve">
<style type="text/css">
	.st0{fill:#2C088B;}
</style>
<circle class="st0" cx="37.6" cy="35.7" r="0.9"/>
<circle class="st0" cx="5.8" cy="4.3" r="0.9"/>
<circle class="st0" cx="9.2" cy="4.3" r="0.9"/>
<circle class="st0" cx="12.6" cy="4.3" r="0.9"/>
<path class="st0" d="M46,10.6h-9.9V2.5c0-1.3-1-2.3-2.3-2.3H3.5c-1.3-0.1-2.3,1-2.3,2.3v23.1c0,1.3,1,2.3,2.3,2.3h23.2v9.5
	c0,1.3,1,2.4,2.4,2.4h17c1.3,0,2.4-1,2.4-2.4V12.9C48.4,11.7,47.3,10.6,46,10.6z M36.1,12.3H46c0.3,0,0.7,0.3,0.7,0.7v19H28.4v-4
	v-1.7V12.9c0-0.3,0.3-0.7,0.7-0.7h5.4C34.4,12.3,36.1,12.3,36.1,12.3z M2.9,2.5c0-0.3,0.3-0.6,0.6-0.6h30.3c0.3,0,0.6,0.3,0.6,0.6
	v3.9H2.9V2.5z M3.5,26.3c-0.3,0-0.6-0.3-0.6-0.6V8h31.6v2.5H29c-1.3,0-2.4,1-2.4,2.4v13.3L3.5,26.3L3.5,26.3z M46,38.1H29
	c-0.3,0-0.7-0.3-0.7-0.7v-3.8h18.2v3.8C46.7,37.8,46.4,38.1,46,38.1z"/>
</svg>
