<?xml version="1.0" encoding="utf-8"?>
<!-- Generator: Adobe Illustrator 25.0.0, SVG Export Plug-In . SVG Version: 6.00 Build 0)  -->
<svg version="1.1" id="Capa_1" xmlns="http://www.w3.org/2000/svg" xmlns:xlink="http://www.w3.org/1999/xlink" x="0px" y="0px"
	 viewBox="0 0 50 40" style="enable-background:new 0 0 50 40;" xml:space="preserve">
<style type="text/css">
	.st0{fill:#331681;}
</style>
<g>
	<g>
		<path class="st0" d="M41.7,33.2H8.1c-2.4,0-4.4-2-4.4-4.4v-24c0-2.4,2-4.4,4.4-4.4h33.6c2.4,0,4.4,2,4.4,4.4v24
			C46.1,31.3,44.1,33.2,41.7,33.2z M8.1,3.1c-1,0-1.8,0.8-1.8,1.8v24c0,1,0.8,1.8,1.8,1.8h33.6c1,0,1.8-0.8,1.8-1.8v-24
			c0-1-0.8-1.8-1.8-1.8H8.1z"/>
	</g>
	<g>
		<path class="st0" d="M45,25.2H5c-0.7,0-1.3-0.6-1.3-1.3s0.6-1.3,1.3-1.3h40c0.7,0,1.3,0.6,1.3,1.3S45.7,25.2,45,25.2z"/>
	</g>
	<g>
		<path class="st0" d="M12.4,15.9c-0.3,0-0.6-0.1-0.8-0.3c-0.6-0.5-0.6-1.3-0.2-1.8l5.4-6.7c0.4-0.6,1.3-0.6,1.8-0.2
			c0.6,0.5,0.6,1.3,0.2,1.8l-5.4,6.7C13.1,15.8,12.7,15.9,12.4,15.9z"/>
	</g>
	<g>
		<path class="st0" d="M30.5,24.8c-0.3,0-0.6-0.1-0.9-0.4c-0.5-0.5-0.5-1.3,0-1.8l7.6-8c0.5-0.5,1.3-0.5,1.8,0
			c0.5,0.5,0.5,1.3,0,1.8l-7.6,8C31.1,24.6,30.8,24.8,30.5,24.8z"/>
	</g>
	<g>
		<path class="st0" d="M21.2,39.2c-0.7,0-1.3-0.6-1.3-1.3v-5.9c0-0.7,0.6-1.3,1.3-1.3c0.7,0,1.3,0.6,1.3,1.3v5.9
			C22.5,38.6,21.9,39.2,21.2,39.2z"/>
	</g>
	<g>
		<path class="st0" d="M28.7,39.2c-0.7,0-1.3-0.6-1.3-1.3v-5.9c0-0.7,0.6-1.3,1.3-1.3s1.3,0.6,1.3,1.3v5.9
			C30,38.6,29.4,39.2,28.7,39.2z"/>
	</g>
	<g>
		<path class="st0" d="M34.4,39.5H16.2c-0.7,0-1.3-0.6-1.3-1.3s0.6-1.3,1.3-1.3h18.2c0.7,0,1.3,0.6,1.3,1.3S35.1,39.5,34.4,39.5z"/>
	</g>
</g>
</svg>
