<?xml version="1.0" encoding="utf-8"?>
<!-- Generator: Adobe Illustrator 25.0.0, SVG Export Plug-In . SVG Version: 6.00 Build 0)  -->
<svg version="1.1" id="cuadro_colores" xmlns="http://www.w3.org/2000/svg" xmlns:xlink="http://www.w3.org/1999/xlink" x="0px"
	 y="0px" viewBox="0 0 120 37.9" style="enable-background:new 0 0 120 37.9;" xml:space="preserve">
<style type="text/css">
	.st0{fill:#2C088B;}
</style>
<g>
	<g>
		<path class="st0" d="M6.1,11.2c0,0,1.6-1.5,4.3-1.5c4.9,0,8.9,3.8,8.9,8.8c0,4.9-4,8.9-8.9,8.9c-4.9,0-8.9-4-8.9-8.9V3.1h4.6V11.2
			z M6.1,18.5c0,2.7,1.6,4.9,4.3,4.9c2.7,0,4.9-2.2,4.9-4.9c0-2.7-2.2-4.7-4.9-4.7c-1.8,0-3.5,0.9-4.3,2.3V18.5z"/>
		<path class="st0" d="M23,8.6c-1.6,0-2.9-1.3-2.9-2.9c0-1.6,1.3-2.8,2.9-2.8c1.6,0,2.8,1.3,2.8,2.8C25.9,7.3,24.6,8.6,23,8.6z
			 M25.3,26.8h-4.5V10.3h4.5V26.8z"/>
		<path class="st0" d="M43.1,14.2c0,0,1.8,1.9,1.8,4.5c0,5.1-3.8,8.6-8.7,8.6h-0.6c-2.2,0-4.4,0.2-4.4,2.3c0,1.2,0.9,1.9,2,1.9
			c3.3,0,4.6-2.9,8.1-2.9c3.5,0,4.5,2.1,4.5,5.1h-4.2c0-0.4-0.1-0.9-0.5-0.9c-1.4,0-3.6,2.7-8,2.7c-3.4,0-6.4-2.2-6.4-5.9
			c0-2.5,1.3-4.1,3.2-5.1c-1.4-1.5-2.3-3.6-2.3-5.9c0-4.7,3.9-8.5,8.6-8.5h8.6v4H43.1z M36.2,14.2c-2.5,0-4.5,2.1-4.5,4.5
			c0,2.5,2,4.6,4.5,4.6c2.5,0,4.5-2.1,4.5-4.6c0-2.2-1.6-4.2-3.8-4.5H36.2z"/>
		<path class="st0" d="M51.6,11.2c0,0,1.6-1.5,4.3-1.5c4.9,0,8.9,3.8,8.9,8.8c0,4.9-4,8.9-8.9,8.9c-4.9,0-8.9-4-8.9-8.9V3.1h4.6
			V11.2z M51.6,18.5c0,2.7,1.6,4.9,4.3,4.9c2.7,0,4.9-2.2,4.9-4.9c0-2.7-2.2-4.7-4.9-4.7c-1.8,0-3.5,0.9-4.3,2.3V18.5z"/>
		<path class="st0" d="M82.7,10.3v16.5h-4.6v-1.3c0,0-1.7,1.8-4.5,1.8c-5.1,0-7.4-3.1-7.4-8.6v-8.6h4.5v8.6c0,2.8,1.4,4.3,3.4,4.3
			c2.8,0,4-2.6,4-2.6V10.3H82.7z"/>
		<path class="st0" d="M100.4,3.1v23.7h-8c-5.1,0-8.6-4-8.6-8.6s2.8-8.6,7.4-8.6c3.1,0,4.5,1.7,4.5,1.7V3.1H100.4z M95.9,22.8v-6.7
			c0,0-0.6-2.4-3.4-2.4c-2.3,0-4,1.7-4,4.6c0,2.3,1.7,4.6,4,4.6H95.9z"/>
		<path class="st0" d="M118.3,10.3v16.5h-4.5v-1.1c0,0-1.4,1.7-4.6,1.7c-4.6,0-7.4-4-7.4-8.6c0-4.6,3.4-8.6,8.6-8.6H118.3z
			 M113.7,21v-6.7h-3.4c-2.3,0-4,2.3-4,4.6c0,2.8,1.7,4.6,4,4.6C113.2,23.4,113.7,21,113.7,21z"/>
	</g>
</g>
</svg>
