<?xml version="1.0" encoding="utf-8"?>
<!-- Generator: Adobe Illustrator 25.0.0, SVG Export Plug-In . SVG Version: 6.00 Build 0)  -->
<svg version="1.1" id="Capa_1" xmlns="http://www.w3.org/2000/svg" xmlns:xlink="http://www.w3.org/1999/xlink" x="0px" y="0px"
	 viewBox="0 0 50 40" style="enable-background:new 0 0 50 40;" xml:space="preserve">
<style type="text/css">
	.st0{fill:#331681;}
</style>
<g>
	<g>
		<g>
			<path class="st0" d="M13.9,14.4h-3.1c-0.5,0-1-0.4-1-1s0.4-1,1-1h3.1c0.5,0,1,0.4,1,1S14.4,14.4,13.9,14.4z"/>
		</g>
		<g>
			<path class="st0" d="M13.9,17.3h-3.1c-0.5,0-1-0.4-1-1c0-0.5,0.4-1,1-1h3.1c0.5,0,1,0.4,1,1C14.8,16.8,14.4,17.3,13.9,17.3z"/>
		</g>
		<g>
			<path class="st0" d="M13.9,23.3h-3.1c-0.5,0-1-0.4-1-1s0.4-1,1-1h3.1c0.5,0,1,0.4,1,1S14.4,23.3,13.9,23.3z"/>
		</g>
		<g>
			<path class="st0" d="M13.9,26.1h-3.1c-0.5,0-1-0.4-1-1c0-0.5,0.4-1,1-1h3.1c0.5,0,1,0.4,1,1C14.8,25.7,14.4,26.1,13.9,26.1z"/>
		</g>
		<g>
			<path class="st0" d="M13.9,32.8h-3.1c-0.5,0-1-0.4-1-1s0.4-1,1-1h3.1c0.5,0,1,0.4,1,1S14.4,32.8,13.9,32.8z"/>
		</g>
		<g>
			<path class="st0" d="M13.9,35.7h-3.1c-0.5,0-1-0.4-1-1s0.4-1,1-1h3.1c0.5,0,1,0.4,1,1S14.4,35.7,13.9,35.7z"/>
		</g>
	</g>
	<g>
		<circle class="st0" cx="35.6" cy="14.9" r="2.4"/>
		<circle class="st0" cx="35.6" cy="23.7" r="2.4"/>
		<circle class="st0" cx="35.6" cy="33.1" r="2.4"/>
	</g>
	<path class="st0" d="M42.7,10l-6.3-8.8c-0.2-0.3-0.5-0.4-0.8-0.4H13.7c-0.3,0-0.6,0.2-0.8,0.4L7,10.4c0,0,0,0,0,0
		c-0.4,0.6-0.7,1.3-0.7,2.1v23.3c0,1.9,1.5,3.4,3.4,3.4h30.6c1.9,0,3.4-1.5,3.4-3.4V12.5C43.7,11.5,43.3,10.6,42.7,10z M8.2,20h33.7
		v7.5H8.2V20z M14.2,2.7h20.9L39.6,9H10.1L14.2,2.7z M9.7,11h30.6c0.8,0,1.5,0.7,1.5,1.5v5.6H8.2v-5.6C8.2,11.6,8.8,11,9.7,11z
		 M40.3,37.3H9.7c-0.8,0-1.5-0.7-1.5-1.5v-6.4h33.7v6.4C41.8,36.6,41.2,37.3,40.3,37.3z"/>
</g>
</svg>
