<?xml version="1.0" encoding="utf-8"?>
<!-- Generator: Adobe Illustrator 25.0.0, SVG Export Plug-In . SVG Version: 6.00 Build 0)  -->
<svg version="1.1" id="Capa_1" xmlns="http://www.w3.org/2000/svg" xmlns:xlink="http://www.w3.org/1999/xlink" x="0px" y="0px"
	 viewBox="0 0 50 40" style="enable-background:new 0 0 50 40;" xml:space="preserve">
<style type="text/css">
	.st0{fill:#331681;}
</style>
<g>
	<path class="st0" d="M24.9,37.7c-9.7,0-17.7-7.9-17.7-17.7c0-9.7,7.9-17.7,17.7-17.7c9.8,0,17.7,7.9,17.7,17.7
		C42.6,29.8,34.6,37.7,24.9,37.7z M24.9,3.8c-9,0-16.3,7.3-16.3,16.3s7.3,16.3,16.3,16.3c9,0,16.3-7.3,16.3-16.3S33.9,3.8,24.9,3.8z
		"/>
</g>
<g>
	<path class="st0" d="M24.7,6.8c-0.4,0-0.7-0.3-0.7-0.7v-5c0-0.4,0.3-0.7,0.7-0.7c0.4,0,0.7,0.3,0.7,0.7v5
		C25.4,6.5,25.1,6.8,24.7,6.8z"/>
</g>
<g>
	<path class="st0" d="M24.7,39.4c-0.4,0-0.7-0.3-0.7-0.7v-5c0-0.4,0.3-0.7,0.7-0.7c0.4,0,0.7,0.3,0.7,0.7v5
		C25.4,39.1,25.1,39.4,24.7,39.4z"/>
</g>
<g>
	<path class="st0" d="M43.5,20.7h-5.1c-0.4,0-0.7-0.3-0.7-0.7s0.3-0.7,0.7-0.7h5.1c0.4,0,0.7,0.3,0.7,0.7S43.9,20.7,43.5,20.7z"/>
</g>
<g>
	<path class="st0" d="M11,20.7H6c-0.4,0-0.7-0.3-0.7-0.7s0.3-0.7,0.7-0.7h5c0.4,0,0.7,0.3,0.7,0.7S11.4,20.7,11,20.7z"/>
</g>
<g>
	<path class="st0" d="M14.4,24.3c-0.3,0-0.6-0.2-0.7-0.5c-0.1-0.4,0.1-0.8,0.5-0.9c0.1,0,10.8-2.9,18.2-11.7c0.2-0.3,0.7-0.3,1-0.1
		c0.3,0.3,0.3,0.7,0.1,1c-7.7,9.1-18.5,12-19,12.2C14.5,24.3,14.4,24.3,14.4,24.3z"/>
</g>
<g>
	<path class="st0" d="M34.6,28.1H15.7c-0.4,0-0.7-0.3-0.7-0.7s0.3-0.7,0.7-0.7h18.9c0.4,0,0.7,0.3,0.7,0.7S35,28.1,34.6,28.1z"/>
</g>
<g>
	<path class="st0" d="M33,28.1c-0.4,0-0.7-0.3-0.7-0.7v-10L30.4,19v8.4c0,0.4-0.3,0.7-0.7,0.7c-0.4,0-0.7-0.3-0.7-0.7v-8.7
		c0-0.2,0.1-0.4,0.2-0.5l3.3-2.8c0.2-0.2,0.5-0.2,0.7-0.1c0.2,0.1,0.4,0.4,0.4,0.6v11.5C33.7,27.8,33.3,28.1,33,28.1z"/>
</g>
<g>
	<path class="st0" d="M26.8,28.1c-0.4,0-0.7-0.3-0.7-0.7v-5.5l-2,1.4v4.1c0,0.4-0.3,0.7-0.7,0.7c-0.4,0-0.7-0.3-0.7-0.7v-4.5
		c0-0.2,0.1-0.4,0.3-0.6l3.4-2.4c0.2-0.2,0.5-0.2,0.7-0.1c0.2,0.1,0.4,0.4,0.4,0.6v6.9C27.5,27.8,27.2,28.1,26.8,28.1z"/>
</g>
<g>
	<path class="st0" d="M21.2,28.1c-0.4,0-0.7-0.3-0.7-0.7v-2.7L18,26v1.5c0,0.4-0.3,0.7-0.7,0.7c-0.4,0-0.7-0.3-0.7-0.7v-1.9
		c0-0.3,0.2-0.5,0.4-0.6l3.9-1.9c0.2-0.1,0.5-0.1,0.7,0s0.3,0.4,0.3,0.6v3.8C21.9,27.8,21.6,28.1,21.2,28.1z"/>
</g>
</svg>
