<?xml version="1.0" encoding="utf-8"?>
<!-- Generator: Adobe Illustrator 25.0.1, SVG Export Plug-In . SVG Version: 6.00 Build 0)  -->
<svg version="1.1" id="Capa_1" xmlns="http://www.w3.org/2000/svg" xmlns:xlink="http://www.w3.org/1999/xlink" x="0px" y="0px"
	 viewBox="0 0 38.9 39" style="enable-background:new 0 0 38.9 39;" xml:space="preserve">
<style type="text/css">
	.st0{fill:#331681;}
</style>
<g>
	<path class="st0" d="M19.6,37.3c-9.7,0-17.7-7.9-17.7-17.7c0-9.7,7.9-17.7,17.7-17.7s17.7,7.9,17.7,17.7S29.3,37.3,19.6,37.3z
		 M19.6,3.4c-9,0-16.3,7.3-16.3,16.3S10.6,36,19.6,36s16.3-7.3,16.3-16.3S28.6,3.4,19.6,3.4z"/>
</g>
<g>
	<path class="st0" d="M19.4,6.4c-0.4,0-0.7-0.3-0.7-0.7v-5C18.7,0.3,19,0,19.4,0c0.4,0,0.7,0.3,0.7,0.7v5
		C20.1,6.1,19.8,6.4,19.4,6.4z"/>
</g>
<g>
	<path class="st0" d="M19.4,39c-0.4,0-0.7-0.3-0.7-0.7v-5c0-0.4,0.3-0.7,0.7-0.7c0.4,0,0.7,0.3,0.7,0.7v5C20.1,38.7,19.8,39,19.4,39
		z"/>
</g>
<g>
	<path class="st0" d="M38.2,20.3h-5.1c-0.4,0-0.7-0.3-0.7-0.7s0.3-0.7,0.7-0.7h5.1c0.4,0,0.7,0.3,0.7,0.7S38.6,20.3,38.2,20.3z"/>
</g>
<g>
	<path class="st0" d="M5.7,20.3h-5C0.3,20.3,0,20,0,19.6s0.3-0.7,0.7-0.7h5c0.4,0,0.7,0.3,0.7,0.7S6.1,20.3,5.7,20.3z"/>
</g>
<g>
	<path class="st0" d="M9.1,23.9c-0.3,0-0.6-0.2-0.7-0.5c-0.1-0.4,0.1-0.8,0.5-0.9c0.1,0,10.8-2.9,18.2-11.7c0.2-0.3,0.7-0.3,1-0.1
		c0.3,0.3,0.3,0.7,0.1,1c-7.7,9.1-18.5,12-19,12.2H9.1z"/>
</g>
<g>
	<path class="st0" d="M29.3,27.7H10.4c-0.4,0-0.7-0.3-0.7-0.7s0.3-0.7,0.7-0.7h18.9c0.4,0,0.7,0.3,0.7,0.7S29.7,27.7,29.3,27.7z"/>
</g>
<g>
	<path class="st0" d="M27.7,27.7c-0.4,0-0.7-0.3-0.7-0.7V17l-1.9,1.6V27c0,0.4-0.3,0.7-0.7,0.7c-0.4,0-0.7-0.3-0.7-0.7v-8.7
		c0-0.2,0.1-0.4,0.2-0.5l3.3-2.8c0.2-0.2,0.5-0.2,0.7-0.1c0.2,0.1,0.4,0.4,0.4,0.6V27C28.4,27.4,28,27.7,27.7,27.7z"/>
</g>
<g>
	<path class="st0" d="M21.5,27.7c-0.4,0-0.7-0.3-0.7-0.7v-5.5l-2,1.4V27c0,0.4-0.3,0.7-0.7,0.7s-0.7-0.3-0.7-0.7v-4.5
		c0-0.2,0.1-0.4,0.3-0.6l3.4-2.4c0.2-0.2,0.5-0.2,0.7-0.1s0.4,0.4,0.4,0.6v6.9C22.2,27.4,21.9,27.7,21.5,27.7z"/>
</g>
<g>
	<path class="st0" d="M15.9,27.7c-0.4,0-0.7-0.3-0.7-0.7v-2.7l-2.5,1.3v1.5c0,0.4-0.3,0.4-0.7,0.4c-0.4,0-0.7,0-0.7-0.4v-1.9
		c0-0.3,0.2-0.5,0.4-0.6l3.9-1.9c0.2-0.1,0.5-0.1,0.7,0s0.3,0.4,0.3,0.6v3.8C16.6,27.4,16.3,27.7,15.9,27.7z"/>
</g>
</svg>
