<?xml version="1.0" encoding="utf-8"?>
<!-- Generator: Adobe Illustrator 25.1.0, SVG Export Plug-In . SVG Version: 6.00 Build 0)  -->
<svg version="1.1" id="Capa_1" xmlns="http://www.w3.org/2000/svg" xmlns:xlink="http://www.w3.org/1999/xlink" x="0px" y="0px"
	 viewBox="0 0 240.9 311.8" style="enable-background:new 0 0 240.9 311.8;" xml:space="preserve">
<style type="text/css">
	.st0{fill:#49B8D0;}
</style>
<g>
	<path class="st0" d="M235.2,243v64.3H19.3V243h75.5V81.9c-3.2,4.3-8.2,8.6-15.2,13c-6.9,4.4-14.4,8.6-22.6,12.5
		c-8.2,3.9-16.6,7.1-25.3,9.6c-8.7,2.5-16.4,3.7-23.1,3.7V54.2c6.4,0,14.2-2,23.4-6.1c9.2-4.1,18.3-8.9,27.1-14.6
		c8.9-5.7,16.6-11.2,23.1-16.8c6.6-5.5,10.7-9.8,12.5-13h72.9V243H235.2z"/>
</g>
</svg>
