<?xml version="1.0" encoding="utf-8"?>
<!-- Generator: Adobe Illustrator 25.1.0, SVG Export Plug-In . SVG Version: 6.00 Build 0)  -->
<svg version="1.1" id="Capa_1" xmlns="http://www.w3.org/2000/svg" xmlns:xlink="http://www.w3.org/1999/xlink" x="0px" y="0px"
	 viewBox="0 0 240.9 311.8" style="enable-background:new 0 0 240.9 311.8;" xml:space="preserve">
<style type="text/css">
	.st0{fill:#49B8D0;}
</style>
<g>
	<path class="st0" d="M5.8,287.3c0-14.1,1.1-26.9,3.3-38.3c2.2-11.4,6-22,11.5-31.7c5.5-9.7,13-18.8,22.6-27.3
		c9.6-8.5,21.7-16.8,36.4-24.9c12.8-6.9,24.2-12.9,34.1-18.1c9.9-5.2,18.1-9.9,24.7-14.3c6.6-4.4,11.6-8.8,15-13.4
		c3.4-4.5,5.2-9.8,5.2-15.7c0-9.4-3.8-17.5-11.3-24.2c-7.5-6.7-18.3-10.1-32.4-10.1c-7.5,0-14.4,1-20.7,3.1
		c-6.3,2-12.1,4.8-17.6,8.2C71,83.9,66,87.8,61.5,92c-4.5,4.2-8.7,8.7-12.5,13.4L8.6,58.9c4.1-4.4,9.9-9.2,17.4-14.3
		s16.4-10,26.6-14.6c10.2-4.5,21.5-8.3,33.8-11.3c12.4-3,25.6-4.5,39.7-4.5c16,0,30.2,2,42.8,5.9c12.5,3.9,23.1,9.4,31.7,16.4
		c8.6,7.1,15.2,15.5,19.7,25.4c4.5,9.9,6.8,20.6,6.8,32.2c0,11-2,20.7-6.1,29.1c-4.1,8.5-9.2,16-15.5,22.6
		c-6.3,6.6-13.1,12.3-20.4,17.2c-7.4,4.9-14.5,9.2-21.4,12.9c-5.6,3.1-12.1,6.7-19.3,10.8c-7.2,4.1-14.3,8.5-21.4,13.4
		c-7.1,4.9-13.6,9.9-19.5,15c-6,5.2-10.5,10.3-13.6,15.3h142.4v56.9H5.8z"/>
</g>
</svg>
