<?xml version="1.0" encoding="utf-8"?>
<!-- Generator: Adobe Illustrator 25.0.0, SVG Export Plug-In . SVG Version: 6.00 Build 0)  -->
<svg version="1.1" id="Capa_1" xmlns="http://www.w3.org/2000/svg" xmlns:xlink="http://www.w3.org/1999/xlink" x="0px" y="0px"
	 viewBox="0 0 135.6 40" style="enable-background:new 0 0 135.6 40;" xml:space="preserve">
<style type="text/css">
	.st0{fill:#E8EBEF;}
</style>
<g>
	<path class="st0" d="M93.7,14.3c0,0,3.3,0,4.3,0c-0.1,0.4-8.2,17.9-8.5,18.4c-0.6,0.9-1.3,1.8-2.7,1.7c-1.2-0.1-2.1-1.1-2.3-2.2
		c-0.7-3.1-2.3-9.7-2.4-10.2c-0.3,0.6-3.2,7.2-4.6,10.2c-0.6,1.3-1.5,2.2-3,2.2c-1.5,0-2.3-0.9-2.7-2.7c-1-4.7-1.9-9.4-2.9-14.1
		c-0.2-1-0.4-2-0.7-3.2h4.4l0.3,1.2c0.7,3.2,2.3,10.5,2.5,11.3c0.4-0.6,3.4-7.7,4.7-10.9c0.5-1.2,0.8-1.6,2.1-1.6c0.8,0,2.1,0,3,0
		l2.7,12.4L93.7,14.3z"/>
	<path class="st0" d="M118.5,5.5c0,0,3.1,0,4.3,0c-0.2,1.7-0.4,3.5-0.6,4.9c-0.2,1.5-0.3,2.9-0.5,4.4c1-0.2,2.3-0.7,4-0.7
		c6.6,0,9.8,5.8,8.9,10.5c-1.2,6.2-7.1,10.6-13.3,9.5c-3.8-0.7-5.8-3.5-5.3-7.4C116.7,20,118.5,5.5,118.5,5.5z M130.3,23.7
		c0-3.7-3.2-5.9-6.8-4.9c-1.6,0.4-2.3,0.8-2.7,2.7c-0.1,0.6-0.4,3.7-0.6,5.5c-0.2,1.6,0.5,2.6,2.1,3
		C126.3,30.9,130.3,27.8,130.3,23.7z"/>
	<path class="st0" d="M53.1,26.5c0.9,3.3,4.7,4.6,9.5,1.6c0.8,0.9,1.7,2.2,2.6,3.2c-3.2,2.5-6.7,4-10.8,2.6
		c-3.7-1.2-5.5-4.1-5.8-7.8c-0.5-5.5,3.7-10.5,9-11.7c2.1-0.5,4.5-0.3,6.4,0.7c2.4,1.2,3.8,3.7,3.5,6.3c-0.3,2.3-2.7,4.7-5.3,5
		c-2.5,0.3-4.6,0.1-7.1,0.2C54.6,26.5,53.7,26.5,53.1,26.5z M53.8,22c2.8,0,5,0,7.7,0.1c1.5,0,2-1.2,1.3-2.2
		c-0.3-0.4-0.7-0.7-1.1-0.9C59.2,17.6,55,19,53.8,22z"/>
	<path class="st0" d="M100.7,26.5c0.9,3.3,4.7,4.6,9.5,1.6c0.8,0.9,1.7,2.2,2.6,3.2c-3.2,2.5-6.7,4-10.8,2.6
		c-3.7-1.2-5.5-4.1-5.8-7.8c-0.5-5.5,3.7-10.5,9-11.7c2.1-0.5,4.5-0.3,6.4,0.7c2.4,1.2,3.8,3.7,3.5,6.3c-0.3,2.3-2.7,4.7-5.3,5
		c-2.5,0.3-4.6,0.1-7.1,0.2C102.2,26.5,101.2,26.5,100.7,26.5z M101.4,22c2.8,0,5,0,7.7,0.1c1.5,0,2-1.2,1.3-2.2
		c-0.3-0.4-0.7-0.7-1.1-0.9C106.8,17.6,102.5,19,101.4,22z"/>
	<path class="st0" d="M30.9,14.3c3.3,0.4,5.8,3.1,5.7,6.9c0,2.2-0.3,4.5-0.8,6.7c-1.4,6.1-9.9,8.8-14.7,4.8
		c-2.4-2.1-2.8-5.8-0.7-8.3c1.7-2,4.1-3,6.7-3.4c1.5-0.2,4.6-0.5,4.6-0.5c-0.2-1.2-1-1.4-1.6-1.6c-1.6-0.4-3.7-0.2-5.7,0.2
		c-0.5,0.1-1.3,0.3-1.8,0.5c-0.3-1.2-0.9-4-0.9-4S26.9,13.5,30.9,14.3z M31.7,24.6c-1.9,0.2-3.4,0.3-5.1,0.7c-0.5,0.1-1.5,0.3-2.3,1
		c-1.1,0.9-1,2.4,0.2,3.1c1.2,0.7,3.5,0.9,5.4-0.2C31.7,28.2,31.7,26.6,31.7,24.6z"/>
	<path class="st0" d="M11,18.5c-1.3-0.2-2.7,0.1-3.1,0.3c-0.2,0.1-0.8,0.3-0.8,0.9c0,0.7,1.1,1.2,2.4,1.8c1.4,0.6,2.4,1,4.2,1.8
		c4.5,2.2,4.9,6.9,0.9,9.8c-2,1.3-3.6,1.7-6.8,1.5c-1.6-0.1-4.8-1.2-7-2.2c1-1.6,1.8-2.7,2.6-3.9c1.6,0.7,2.9,1.3,4.4,1.5
		c1.3,0.2,2.4,0.3,3.6,0c0.2,0,1.2-0.2,1.4-0.9c0.1-0.4,0.1-0.9-0.6-1.3c-1.9-1-3.9-1.8-5.8-2.6c-1.6-0.7-3.2-1.8-3.7-3.6
		c-0.6-2.2,0.4-4.2,2-5.6c2.6-2.3,5.9-2.4,9.1-1.6c1.8,0.4,3.3,1.2,5.3,2l-2.2,4C16.9,20.3,13.2,18.8,11,18.5z"/>
	<path class="st0" d="M37.4,34.3c0.6-4.5,1.1-8.9,1.6-13.3c0.3-2.4,0.6-5,0.9-7.4c0.6-5.2,4.7-8.8,10.6-8.1
		c-0.1,1.1-0.1,2.6-0.4,3.6c-0.1,0.3-0.4,0.7-0.8,0.8c-0.5,0.1-1.4,0.1-2,0.2c-1.6,0.2-2.7,1.1-2.9,3.4c1.6,0,3.2,0,5.1,0
		c-0.1,1.8-0.1,3.3-0.5,3.9c-0.2,0.4-0.9,0.5-1.3,0.5c-1,0-3.9,0-3.9,0l-2,16.6L37.4,34.3z"/>
</g>
</svg>
