<?xml version="1.0" encoding="utf-8"?>
<!-- Generator: Adobe Illustrator 25.0.1, SVG Export Plug-In . SVG Version: 6.00 Build 0)  -->
<svg version="1.1" id="Capa_1" xmlns="http://www.w3.org/2000/svg" xmlns:xlink="http://www.w3.org/1999/xlink" x="0px" y="0px"
	 viewBox="0 0 120 33.8" style="enable-background:new 0 0 120 33.8;" xml:space="preserve">
<style type="text/css">
	.st0{fill:#341581;}
</style>
<g>
	<g>
		<path class="st0" d="M5,8.5C5,8.5,6.7,7,9.4,7c5,0,9.1,3.9,9.1,9c0,5-4.1,9.1-9.1,9.1S0.3,21,0.3,16V0.3H5V8.5z M5,16
			c0,2.8,1.6,5,4.4,5s5-2.2,5-5s-2.2-4.8-5-4.8c-1.8,0-3.6,0.9-4.4,2.3C5,13.5,5,16,5,16z"/>
		<path class="st0" d="M22.3,5.9c-1.6,0-3-1.3-3-3s1.3-2.9,3-2.9c1.6,0,2.9,1.3,2.9,2.9C25.2,4.6,23.9,5.9,22.3,5.9z M24.6,24.5H20
			V7.6h4.6V24.5z"/>
		<path class="st0" d="M42.8,11.6c0,0,1.8,1.9,1.8,4.6c0,5.2-3.9,8.8-8.9,8.8h-0.6c-2.2,0-4.5,0.2-4.5,2.3c0,1.2,0.9,1.9,2,1.9
			c3.4,0,4.7-3,8.3-3s4.6,2.1,4.6,5.2h-4.3c0-0.4-0.1-0.9-0.5-0.9c-1.4,0-3.7,2.8-8.2,2.8c-3.5,0-6.5-2.2-6.5-6
			c0-2.6,1.3-4.2,3.3-5.2c-1.4-1.5-2.3-3.7-2.3-6c0-4.8,4-8.7,8.8-8.7h8.8v4.1h-1.7V11.6z M35.8,11.6c-2.6,0-4.6,2.1-4.6,4.6
			c0,2.6,2,4.7,4.6,4.7s4.6-2.1,4.6-4.7c0-2.2-1.6-4.3-3.9-4.6C36.5,11.6,35.8,11.6,35.8,11.6z"/>
		<path class="st0" d="M51.5,8.5c0,0,1.6-1.5,4.4-1.5c5,0,9.1,3.9,9.1,9c0,5-4.1,9.1-9.1,9.1S46.8,21,46.8,16V0.3h4.7
			C51.5,0.3,51.5,8.5,51.5,8.5z M51.5,16c0,2.8,1.6,5,4.4,5s5-2.2,5-5s-2.2-4.8-5-4.8c-1.8,0-3.6,0.9-4.4,2.3V16z"/>
		<path class="st0" d="M83.2,7.6v16.8h-4.7v-1.3c0,0-1.7,1.8-4.6,1.8c-5.2,0-7.6-3.2-7.6-8.8V7.4H71v8.8c0,2.9,1.4,4.4,3.5,4.4
			c2.9,0,4.1-2.7,4.1-2.7V7.6H83.2z"/>
		<path class="st0" d="M101.3,0.3v24.2h-8.2c-5.2,0-8.8-4.1-8.8-8.8s2.9-8.8,7.6-8.8c3.2,0,4.6,1.7,4.6,1.7V0.3H101.3z M96.7,20.4
			v-6.8c0,0-0.6-2.5-3.5-2.5c-2.3,0-4.1,1.7-4.1,4.7c0,2.3,1.7,4.7,4.1,4.7h3.5V20.4z"/>
		<path class="st0" d="M119.6,7.6v16.8H115v-1.1c0,0-1.4,1.7-4.7,1.7c-4.7,0-7.6-4.1-7.6-8.8s3.5-8.8,8.8-8.8h8.1V7.6z M114.9,18.5
			v-6.8h-3.5c-2.3,0-4.1,2.3-4.1,4.7c0,2.9,1.7,4.7,4.1,4.7C114.4,21,114.9,18.5,114.9,18.5z"/>
	</g>
</g>
</svg>
